<?xml version="1.0" encoding="utf-8"?>
<!-- Generator: Adobe Illustrator 21.1.0, SVG Export Plug-In . SVG Version: 6.00 Build 0)  -->
<svg version="1.1" id="Calque_1" xmlns="http://www.w3.org/2000/svg" xmlns:xlink="http://www.w3.org/1999/xlink" x="0px" y="0px"
	 viewBox="0 0 24 24" style="enable-background:new 0 0 24 24;" xml:space="preserve">
<style type="text/css">
	.st0{fill:#FFFFFF;}
</style>
<path class="st0" d="M16.3,14.9l5.4,5.4c0.4,0.4,0.3,1.1-0.1,1.4c-0.4,0.3-0.9,0.3-1.3,0l-5.4-5.4c-3.5,2.7-8.5,2.1-11.2-1.4
	S1.6,6.4,5.1,3.7s8.5-2.1,11.2,1.4C18.6,8,18.6,12,16.3,14.9L16.3,14.9z M10,16c3.3,0,6-2.7,6-6s-2.7-6-6-6s-6,2.7-6,6S6.7,16,10,16
	z"/>
</svg>
